<?xml version="1.0" encoding="UTF-8" standalone="no"?><!DOCTYPE svg PUBLIC "-//W3C//DTD SVG 1.1//EN" "http://www.w3.org/Graphics/SVG/1.1/DTD/svg11.dtd"><svg width="100%" height="100%" viewBox="0 0 600 600" version="1.1" xmlns="http://www.w3.org/2000/svg" xmlns:xlink="http://www.w3.org/1999/xlink" xml:space="preserve" xmlns:serif="http://www.serif.com/" style="fill-rule:evenodd;clip-rule:evenodd;stroke-linejoin:round;stroke-miterlimit:2;"><g><rect x="0" y="0" width="600" height="600" style="fill:#102757;"/><path d="M327.399,91.69c3.523,0 6.607,2.366 7.518,5.769c12.014,44.837 90.411,337.418 105.817,394.913c0.626,2.337 0.13,4.833 -1.343,6.752c-1.473,1.92 -3.755,3.045 -6.175,3.045c-14.105,0 -39.196,0 -50.628,0c-3.523,0 -6.606,-2.366 -7.518,-5.769c-3.691,-13.774 -12.98,-48.444 -16.609,-61.988c-0.877,-3.269 -3.84,-5.543 -7.225,-5.543c-19.486,-0 -82.986,-0 -102.472,-0c-3.385,-0 -6.348,2.274 -7.225,5.543c-3.629,13.544 -12.918,48.214 -16.609,61.988c-0.912,3.403 -3.995,5.769 -7.518,5.769c-11.432,0 -36.523,0 -50.628,0c-2.42,0 -4.702,-1.125 -6.175,-3.045c-1.473,-1.919 -1.969,-4.415 -1.343,-6.752c15.406,-57.495 93.803,-350.076 105.817,-394.913c0.911,-3.403 3.995,-5.769 7.518,-5.769c12.672,0 42.126,0 54.798,0Zm-21.384,146.991c-0.73,-2.722 -3.197,-4.615 -6.015,-4.615c-2.818,0 -5.285,1.893 -6.015,4.615c-8.913,33.267 -25.2,94.049 -30.976,115.607c-0.501,1.869 -0.104,3.866 1.074,5.402c1.179,1.536 3.005,2.436 4.94,2.436c15.01,-0 46.944,-0 61.954,-0c1.935,-0 3.761,-0.9 4.94,-2.436c1.178,-1.536 1.575,-3.533 1.074,-5.402c-5.776,-21.558 -22.063,-82.34 -30.976,-115.607Z" style="fill:#e8efff;"/></g></svg>