<?xml version="1.0" encoding="UTF-8" standalone="no"?><!DOCTYPE svg PUBLIC "-//W3C//DTD SVG 1.1//EN" "http://www.w3.org/Graphics/SVG/1.1/DTD/svg11.dtd"><svg width="100%" height="100%" viewBox="0 0 41 40" version="1.1" xmlns="http://www.w3.org/2000/svg" xmlns:xlink="http://www.w3.org/1999/xlink" xml:space="preserve" xmlns:serif="http://www.serif.com/" style="fill-rule:evenodd;clip-rule:evenodd;stroke-linejoin:round;stroke-miterlimit:2;"><path id="github" d="M20.344,0c-11.235,0 -20.344,9.109 -20.344,20.346c0,8.99 5.829,16.615 13.914,19.306c1.018,0.187 1.389,-0.442 1.389,-0.981c-0,-0.482 -0.018,-1.763 -0.028,-3.46c-5.659,1.229 -6.853,-2.728 -6.853,-2.728c-0.925,-2.351 -2.259,-2.976 -2.259,-2.976c-1.848,-1.262 0.14,-1.237 0.14,-1.237c2.042,0.144 3.116,2.097 3.116,2.097c1.815,3.109 4.762,2.211 5.921,1.69c0.185,-1.314 0.71,-2.211 1.292,-2.719c-4.518,-0.513 -9.268,-2.259 -9.268,-10.056c0,-2.22 0.793,-4.037 2.095,-5.459c-0.21,-0.515 -0.908,-2.583 0.198,-5.385c0,0 1.709,-0.547 5.596,2.086c1.622,-0.452 3.364,-0.677 5.093,-0.684c1.728,0.007 3.469,0.232 5.094,0.684c3.884,-2.633 5.589,-2.086 5.589,-2.086c1.111,2.802 0.412,4.87 0.203,5.385c1.304,1.422 2.092,3.239 2.092,5.459c-0,7.817 -4.758,9.537 -9.29,10.04c0.73,0.628 1.381,1.87 1.381,3.768c-0,2.719 -0.025,4.914 -0.025,5.581c-0,0.544 0.366,1.178 1.399,0.979c8.078,-2.697 13.903,-10.317 13.903,-19.304c-0,-11.237 -9.111,-20.346 -20.348,-20.346" style="fill:#fff;"/></svg>